<mxfile host="Electron" agent="Mozilla/5.0 (Windows NT 10.0; Win64; x64) AppleWebKit/537.36 (KHTML, like Gecko) draw.io/28.2.8 Chrome/140.0.7339.240 Electron/38.4.0 Safari/537.36" version="28.2.8">
  <diagram name="Page-1" id="cckhRAU9klDnyzQ11kri">
    <mxGraphModel dx="576" dy="841" grid="1" gridSize="10" guides="1" tooltips="1" connect="1" arrows="1" fold="1" page="1" pageScale="1" pageWidth="850" pageHeight="1100" math="0" shadow="0">
      <root>
        <mxCell id="0" />
        <mxCell id="1" parent="0" />
        <mxCell id="Mayd09K4v3OKnPgqIkE1-7" value="" style="group" parent="1" vertex="1" connectable="0">
          <mxGeometry x="1270" y="400" width="640" height="551.56" as="geometry" />
        </mxCell>
        <mxCell id="Mayd09K4v3OKnPgqIkE1-21" value="" style="group" parent="Mayd09K4v3OKnPgqIkE1-7" vertex="1" connectable="0">
          <mxGeometry y="-18.444593070104755" width="640" height="570.0045930701046" as="geometry" />
        </mxCell>
        <mxCell id="jGKvfiks8SonWcWXjs5c-13" value="Book Management" style="whiteSpace=wrap;strokeWidth=2;align=left;verticalAlign=top;" vertex="1" parent="1">
          <mxGeometry x="1210" y="920" width="678" height="410" as="geometry" />
        </mxCell>
        <mxCell id="jGKvfiks8SonWcWXjs5c-14" value="Book Controller" style="whiteSpace=wrap;strokeWidth=2;" vertex="1" parent="1">
          <mxGeometry x="1365" y="945" width="172" height="54" as="geometry" />
        </mxCell>
        <mxCell id="jGKvfiks8SonWcWXjs5c-15" value="Book Service" style="whiteSpace=wrap;strokeWidth=2;" vertex="1" parent="1">
          <mxGeometry x="1498" y="1074" width="151" height="54" as="geometry" />
        </mxCell>
        <mxCell id="jGKvfiks8SonWcWXjs5c-16" value="Book Entity" style="whiteSpace=wrap;strokeWidth=2;" vertex="1" parent="1">
          <mxGeometry x="1711" y="1251" width="142" height="54" as="geometry" />
        </mxCell>
        <mxCell id="jGKvfiks8SonWcWXjs5c-17" value="Book Repository" style="whiteSpace=wrap;strokeWidth=2;" vertex="1" parent="1">
          <mxGeometry x="1487" y="1251" width="174" height="54" as="geometry" />
        </mxCell>
        <mxCell id="jGKvfiks8SonWcWXjs5c-18" value="Book DTOs/Views" style="whiteSpace=wrap;strokeWidth=2;" vertex="1" parent="1">
          <mxGeometry x="1265" y="1074" width="184" height="54" as="geometry" />
        </mxCell>
        <mxCell id="jGKvfiks8SonWcWXjs5c-19" value="" style="curved=1;startArrow=none;endArrow=block;exitX=0.87;exitY=1;entryX=0.5;entryY=0;rounded=0;" edge="1" parent="1" source="jGKvfiks8SonWcWXjs5c-14" target="jGKvfiks8SonWcWXjs5c-15">
          <mxGeometry relative="1" as="geometry">
            <Array as="points">
              <mxPoint x="1574" y="1024" />
            </Array>
          </mxGeometry>
        </mxCell>
        <mxCell id="jGKvfiks8SonWcWXjs5c-20" value="" style="curved=1;startArrow=none;endArrow=block;exitX=1;exitY=0.79;entryX=0.66;entryY=0;rounded=0;" edge="1" parent="1" source="jGKvfiks8SonWcWXjs5c-15" target="jGKvfiks8SonWcWXjs5c-16">
          <mxGeometry relative="1" as="geometry">
            <Array as="points">
              <mxPoint x="1825" y="1153" />
              <mxPoint x="1825" y="1226" />
            </Array>
          </mxGeometry>
        </mxCell>
        <mxCell id="jGKvfiks8SonWcWXjs5c-21" value="" style="curved=1;startArrow=none;endArrow=block;exitX=0.5;exitY=1;entryX=0.5;entryY=0;rounded=0;" edge="1" parent="1" source="jGKvfiks8SonWcWXjs5c-15" target="jGKvfiks8SonWcWXjs5c-17">
          <mxGeometry relative="1" as="geometry">
            <Array as="points" />
          </mxGeometry>
        </mxCell>
        <mxCell id="jGKvfiks8SonWcWXjs5c-22" value="" style="curved=1;startArrow=none;endArrow=block;exitX=0.21;exitY=1;entryX=0.5;entryY=0;rounded=0;" edge="1" parent="1" source="jGKvfiks8SonWcWXjs5c-14" target="jGKvfiks8SonWcWXjs5c-18">
          <mxGeometry relative="1" as="geometry">
            <Array as="points">
              <mxPoint x="1357" y="1024" />
            </Array>
          </mxGeometry>
        </mxCell>
        <mxCell id="jGKvfiks8SonWcWXjs5c-23" value="" style="shape=module;align=left;spacingLeft=20;align=center;verticalAlign=top;whiteSpace=wrap;html=1;movable=1;resizable=1;rotatable=1;deletable=1;editable=1;locked=0;connectable=1;" vertex="1" parent="1">
          <mxGeometry x="1830" y="940" width="34.5" height="50" as="geometry" />
        </mxCell>
      </root>
    </mxGraphModel>
  </diagram>
</mxfile>
